<?xml version="1.0" encoding="UTF-8" standalone="no"?>
<svg
   height="24px"
   viewBox="0 -960 960 960"
   width="24px"
   fill="#1f1f1f"
   version="1.1"
   id="svg1"
   sodipodi:docname="current.svg"
   xml:space="preserve"
   inkscape:version="1.3.2 (091e20e, 2023-11-25, custom)"
   xmlns:inkscape="http://www.inkscape.org/namespaces/inkscape"
   xmlns:sodipodi="http://sodipodi.sourceforge.net/DTD/sodipodi-0.dtd"
   xmlns="http://www.w3.org/2000/svg"
   xmlns:svg="http://www.w3.org/2000/svg"><defs
     id="defs1" /><sodipodi:namedview
     id="namedview1"
     pagecolor="#ffffff"
     bordercolor="#000000"
     borderopacity="0.25"
     inkscape:showpageshadow="2"
     inkscape:pageopacity="0.0"
     inkscape:pagecheckerboard="0"
     inkscape:deskcolor="#d1d1d1"
     inkscape:zoom="16.9375"
     inkscape:cx="19.571956"
     inkscape:cy="18.509225"
     inkscape:window-width="1920"
     inkscape:window-height="1009"
     inkscape:window-x="1912"
     inkscape:window-y="-8"
     inkscape:window-maximized="1"
     inkscape:current-layer="svg1" /><path
     d="m 80,-400 v -80 c 25.33333,0 44.16667,-6.66667 56.5,-20 12.33333,-13.33333 38.16667,-20 77.5,-20 38,0 63.5,6.66667 76.5,20 13,13.33333 31.5,20 55.5,20 25.33333,0 44.16667,-6.66667 56.5,-20 12.33333,-13.33333 38.16667,-20 77.5,-20 38,0 63.66667,6.66667 77,20 13.33333,13.33333 31.66667,20 55,20 25.33333,0 44.16667,-6.66667 56.5,-20 12.33333,-13.33333 38.16667,-20 77.5,-20 38,0 63.83333,6.66667 77.5,20 13.66667,13.33333 32.5,20 56.5,20 v 80 c -39.33333,0 -65.5,-6.66667 -78.5,-20 -13,-13.33333 -31.5,-20 -55.5,-20 -24,0 -42.16667,6.66667 -54.5,20 -12.33333,13.33333 -38.16667,20 -77.5,20 -38,0 -63.83333,-6.66667 -77.5,-20 -13.66667,-13.33333 -32.5,-20 -56.5,-20 -25.33333,0 -43.83333,6.66667 -55.5,20 -11.66667,13.33333 -37.16667,20 -76.5,20 -39.33333,0 -65.5,-6.66667 -78.5,-20 -13,-13.33333 -31.5,-20 -55.5,-20 -24,0 -42.83333,6.66667 -56.5,20 -13.66667,13.33333 -39.5,20 -77.5,20 z m 0,-160 v -80 c 25.33333,0 44.16667,-6.66667 56.5,-20 12.33333,-13.33333 38.16667,-20 77.5,-20 38,0 63.5,6.66667 76.5,20 13,13.33333 31.5,20 55.5,20 25.33333,0 44.16667,-6.66667 56.5,-20 12.33333,-13.33333 38.16667,-20 77.5,-20 38,0 63.66667,6.66667 77,20 13.33333,13.33333 31.66667,20 55,20 25.33333,0 44.16667,-6.66667 56.5,-20 12.33333,-13.33333 38.16667,-20 77.5,-20 38,0 63.83333,6.66667 77.5,20 13.66667,13.33333 32.5,20 56.5,20 v 80 c -39.33333,0 -65.5,-6.66667 -78.5,-20 -13,-13.33333 -31.5,-20 -55.5,-20 -24,0 -42.16667,6.66667 -54.5,20 -12.33333,13.33333 -38.16667,20 -77.5,20 -38,0 -63.83333,-6.66667 -77.5,-20 -13.66667,-13.33333 -32.5,-20 -56.5,-20 -25.33333,0 -43.83333,6.66667 -55.5,20 -11.66667,13.33333 -37.16667,20 -76.5,20 -39.33333,0 -65.5,-6.66667 -78.5,-20 -13,-13.33333 -31.5,-20 -55.5,-20 -24,0 -42.83333,6.66667 -56.5,20 -13.66667,13.33333 -39.5,20 -77.5,20 z"
     id="path1"
     sodipodi:nodetypes="ccsssssssssssccssssssssssscccsssssssssssccsssssssssssc" /><g
     style="fill:#1f1f1f"
     id="g1"
     transform="translate(-20)"><path
       d="m 758.62522,-117.81124 -53.24268,-60.1748 39.32964,-37.65971 H 99.335796 l -0.590406,-78.81919 645.96679,-1.18081 -36.24224,-37.24224 55.74756,-56 133.49468,133.24224 z"
       id="path1-4"
       sodipodi:nodetypes="cccccccccc" /></g></svg>
